<?xml version="1.0" encoding="utf-8"?>
<svg version="1.1" xmlns:xlink="http://www.w3.org/1999/xlink" width="86px" height="86px" xmlns="http://www.w3.org/2000/svg">
  <g transform="matrix(1 0 0 1 -487 -3487 )">
    <path d="M 530 3487  C 554.08 3487  573 3505.92  573 3530  C 573 3554.08  554.08 3573  530 3573  C 505.92 3573  487 3554.08  487 3530  C 487 3505.92  505.92 3487  530 3487  Z " fill-rule="nonzero" fill="#ffff00" stroke="none" />
    <path d="M 530 3487.5  C 553.8 3487.5  572.5 3506.2  572.5 3530  C 572.5 3553.8  553.8 3572.5  530 3572.5  C 506.2 3572.5  487.5 3553.8  487.5 3530  C 487.5 3506.2  506.2 3487.5  530 3487.5  Z " stroke-width="1" stroke="#797979" fill="none" />
  </g>
</svg>