<?xml version="1.0" encoding="utf-8"?>
<svg version="1.1" xmlns:xlink="http://www.w3.org/1999/xlink" width="86px" height="86px" xmlns="http://www.w3.org/2000/svg">
  <g transform="matrix(1 0 0 1 -131 -3487 )">
    <path d="M 174 3487  C 198.08 3487  217 3505.92  217 3530  C 217 3554.08  198.08 3573  174 3573  C 149.92 3573  131 3554.08  131 3530  C 131 3505.92  149.92 3487  174 3487  Z " fill-rule="nonzero" fill="#000000" stroke="none" />
    <path d="M 174 3487.5  C 197.8 3487.5  216.5 3506.2  216.5 3530  C 216.5 3553.8  197.8 3572.5  174 3572.5  C 150.2 3572.5  131.5 3553.8  131.5 3530  C 131.5 3506.2  150.2 3487.5  174 3487.5  Z " stroke-width="1" stroke="#797979" fill="none" />
  </g>
</svg>