<?xml version="1.0" encoding="utf-8"?>
<svg version="1.1" xmlns:xlink="http://www.w3.org/1999/xlink" width="86px" height="86px" xmlns="http://www.w3.org/2000/svg">
  <g transform="matrix(1 0 0 1 -724 -3487 )">
    <path d="M 767 3487  C 791.08 3487  810 3505.92  810 3530  C 810 3554.08  791.08 3573  767 3573  C 742.92 3573  724 3554.08  724 3530  C 724 3505.92  742.92 3487  767 3487  Z " fill-rule="nonzero" fill="#00ffff" stroke="none" />
    <path d="M 767 3487.5  C 790.8 3487.5  809.5 3506.2  809.5 3530  C 809.5 3553.8  790.8 3572.5  767 3572.5  C 743.2 3572.5  724.5 3553.8  724.5 3530  C 724.5 3506.2  743.2 3487.5  767 3487.5  Z " stroke-width="1" stroke="#797979" fill="none" />
  </g>
</svg>