<?xml version="1.0" encoding="utf-8"?>
<svg version="1.1" xmlns:xlink="http://www.w3.org/1999/xlink" width="170px" height="170px" xmlns="http://www.w3.org/2000/svg">
  <g transform="matrix(1 0 0 1 -721 -1522 )">
    <path d="M 806 1522  C 853.6 1522  891 1559.4  891 1607  C 891 1654.6  853.6 1692  806 1692  C 758.4 1692  721 1654.6  721 1607  C 721 1559.4  758.4 1522  806 1522  Z " fill-rule="nonzero" fill="#ffffff" stroke="none" />
    <path d="M 806 1522.5  C 853.32 1522.5  890.5 1559.68  890.5 1607  C 890.5 1654.32  853.32 1691.5  806 1691.5  C 758.68 1691.5  721.5 1654.32  721.5 1607  C 721.5 1559.68  758.68 1522.5  806 1522.5  Z " stroke-width="1" stroke="#797979" fill="none" />
  </g>
</svg>