<?xml version="1.0" encoding="utf-8"?>
<svg version="1.1" xmlns:xlink="http://www.w3.org/1999/xlink" width="183px" height="182px" xmlns="http://www.w3.org/2000/svg">
  <g transform="matrix(1 0 0 1 -757 -3879 )">
    <path d="M 848.5 3879  C 899.74 3879  940 3919.04  940 3970  C 940 4020.96  899.74 4061  848.5 4061  C 797.26 4061  757 4020.96  757 3970  C 757 3919.04  797.26 3879  848.5 3879  Z " fill-rule="nonzero" fill="#ffffff" stroke="none" />
    <path d="M 848.5 3879.5  C 899.46 3879.5  939.5 3919.32  939.5 3970  C 939.5 4020.68  899.46 4060.5  848.5 4060.5  C 797.54 4060.5  757.5 4020.68  757.5 3970  C 757.5 3919.32  797.54 3879.5  848.5 3879.5  Z " stroke-width="1" stroke="#797979" fill="none" />
  </g>
</svg>