<?xml version="1.0" encoding="utf-8"?>
<svg version="1.1" xmlns:xlink="http://www.w3.org/1999/xlink" width="42px" height="42px" xmlns="http://www.w3.org/2000/svg">
  <defs>
    <filter x="1289px" y="4504px" width="42px" height="42px" filterUnits="userSpaceOnUse" id="filter3">
      <feOffset dx="1" dy="1" in="SourceAlpha" result="shadowOffsetInner" />
      <feGaussianBlur stdDeviation="2.5" in="shadowOffsetInner" result="shadowGaussian" />
      <feComposite in2="shadowGaussian" operator="atop" in="SourceAlpha" result="shadowComposite" />
      <feColorMatrix type="matrix" values="0 0 0 0 0  0 0 0 0 0  0 0 0 0 0  0 0 0 0.698039215686274 0  " in="shadowComposite" />
    </filter>
    <g id="widget4">
      <path d="M 1309 4508  C 1317.96 4508  1325 4515.04  1325 4524  C 1325 4532.96  1317.96 4540  1309 4540  C 1300.04 4540  1293 4532.96  1293 4524  C 1293 4515.04  1300.04 4508  1309 4508  Z " fill-rule="nonzero" fill="#d9001b" stroke="none" />
      <path d="M 1309 4508.5  C 1317.68 4508.5  1324.5 4515.32  1324.5 4524  C 1324.5 4532.68  1317.68 4539.5  1309 4539.5  C 1300.32 4539.5  1293.5 4532.68  1293.5 4524  C 1293.5 4515.32  1300.32 4508.5  1309 4508.5  Z " stroke-width="1" stroke="#ffffff" fill="none" />
    </g>
  </defs>
  <g transform="matrix(1 0 0 1 -1289 -4504 )">
    <use xlink:href="#widget4" filter="url(#filter3)" />
    <use xlink:href="#widget4" />
  </g>
</svg>